<?xml version="1.0" standalone="no"?>
<!DOCTYPE svg PUBLIC "-//W3C//DTD SVG 20010904//EN"
 "http://www.w3.org/TR/2001/REC-SVG-20010904/DTD/svg10.dtd">
<svg version="1.0" xmlns="http://www.w3.org/2000/svg"
 width="500.000000pt" height="500.000000pt" viewBox="0 0 500.000000 500.000000"
 preserveAspectRatio="xMidYMid meet">
<metadata>
Created by potrace 1.16, written by Peter Selinger 2001-2019
</metadata>
<g transform="translate(0.000000,500.000000) scale(0.100000,-0.100000)"
fill="#000000" stroke="none">
<path d="M2446 3365 c-45 -78 -51 -85 -95 -100 -25 -8 -63 -26 -83 -40 -20
-14 -39 -25 -41 -25 -3 0 -28 15 -56 34 -52 35 -128 68 -190 81 l-34 7 7 -64
c8 -78 39 -196 67 -250 11 -22 18 -42 15 -45 -2 -3 -31 1 -63 7 -62 13 -208
18 -219 7 -11 -11 72 -173 120 -236 107 -138 288 -274 451 -337 60 -24 85 -28
175 -28 93 0 113 3 180 30 231 92 433 271 530 470 22 45 40 86 40 92 0 22
-143 20 -257 -4 l-32 -6 31 78 c46 119 75 284 50 284 -40 0 -185 -64 -252
-111 -12 -9 -25 -5 -53 14 -21 14 -60 33 -88 42 -41 14 -53 24 -70 58 -29 57
-73 127 -80 127 -3 0 -27 -38 -53 -85z m-98 -235 l-12 -52 -23 28 c-13 16 -23
32 -23 37 0 8 62 48 67 43 2 -2 -2 -27 -9 -56z m344 -18 l-26 -35 -13 49 c-18
68 -18 68 26 43 l40 -22 -27 -35z"/>
<path d="M2527 2223 c-14 -13 -6 -24 29 -39 45 -19 50 -14 23 19 -20 26 -39
34 -52 20z"/>
<path d="M2503 2130 c-58 -35 -80 -96 -64 -179 10 -52 44 -88 91 -97 33 -6 34
-6 15 9 -18 14 -20 29 -23 135 -4 115 -3 120 19 136 34 23 1 20 -38 -4z"/>
<path d="M2600 2133 c22 -19 25 -29 28 -121 3 -77 1 -108 -11 -131 -17 -34 -8
-39 31 -17 41 22 62 66 62 129 0 88 -35 141 -101 153 l-34 7 25 -20z"/>
<path d="M2830 2112 c0 -22 3 -87 7 -145 l6 -107 40 0 40 0 -7 77 c-3 42 -6
107 -6 145 l0 68 -40 0 c-40 0 -40 0 -40 -38z"/>
<path d="M2269 2102 l36 -38 3 29 c4 35 6 33 -39 41 l-36 6 36 -38z"/>
<path d="M2140 2108 c-21 -23 -27 -77 -11 -107 6 -10 29 -25 53 -35 105 -44
108 -45 108 -68 0 -12 -8 -30 -17 -41 -17 -19 -17 -20 5 -8 37 20 55 57 49
102 -6 48 -24 63 -94 84 -60 19 -77 35 -71 70 6 31 4 31 -22 3z"/>
<path d="M3015 1923 c-14 -26 -31 -42 -55 -50 l-35 -12 53 0 c59 -1 65 6 60
63 l-3 36 -20 -37z"/>
<path d="M2120 1891 c0 -38 0 -39 46 -46 25 -3 48 -4 52 -1 3 3 -2 6 -10 6 -9
0 -32 18 -52 40 l-36 40 0 -39z"/>
</g>
</svg>
